PathFileType	4	(X/Y/Z)	c:/Users/goper/Files/vsCode/490R/osim_files/C12/C12_Slow_04.trc
DataRate	CameraRate	NumFrames	NumMarkers	Units                	OrigDataRate	OrigDataStartFrame	OrigNumFrames
120.00	120.00	5	36	mm	120.0	828	1655
                Frame#	Time	LPSIS			LASIS			LTH1			LTH2			LTH3			LTH4			LLFE			LMFE			LSH1			LSH2			LSH3			LSH4			LLMAL			LMMAL			LCAL			LMTP5			LTOE			LMTP1			RPSIS			RASIS			RTH1			RTH2			RTH3			RTH4			RLFE			RMFE			RSH1			RSH2			RSH3			RSH4			RLMAL			RMMAL			RCAL			RMTP1			RTOE			RMTP5		
		X1	Y1	Z1	X2	Y2	Z2	X3	Y3	Z3	X4	Y4	Z4	X5	Y5	Z5	X6	Y6	Z6	X7	Y7	Z7	X8	Y8	Z8	X9	Y9	Z9	X10	Y10	Z10	X11	Y11	Z11	X12	Y12	Z12	X13	Y13	Z13	X14	Y14	Z14	X15	Y15	Z15	X16	Y16	Z16	X17	Y17	Z17	X18	Y18	Z18	X19	Y19	Z19	X20	Y20	Z20	X21	Y21	Z21	X22	Y22	Z22	X23	Y23	Z23	X24	Y24	Z24	X25	Y25	Z25	X26	Y26	Z26	X27	Y27	Z27	X28	Y28	Z28	X29	Y29	Z29	X30	Y30	Z30	X31	Y31	Z31	X32	Y32	Z32	X33	Y33	Z33	X34	Y34	Z34	X35	Y35	Z35	X36	Y36	Z36

828	6.89167	-1393.99890	1060.31042	373.99170	-1573.90308	1016.77612	425.64087	-1548.76038	734.59521	471.70251	-1563.97290	693.53412	465.26672	-1607.32617	754.39838	468.27267	-1615.83374	710.79474	462.03625	-1642.63928	536.65125	408.29547	-1627.13940	535.83136	283.88107	-1591.20154	436.82114	428.92062	-1595.41858	388.91675	433.63873	-1651.33252	434.93317	415.53186	-1645.20935	387.72040	419.95392	-1601.71851	99.49110	379.20563	-1607.72974	105.37898	300.90182	-1535.11401	74.74094	346.03717	-1735.47400	42.54142	395.66211	-1781.92053	73.31256	322.97400	-1748.24146	42.66600	283.85501	-1379.93323	1056.13049	259.47433	-1554.02942	1014.01105	171.45354	-1420.75256	734.62677	115.40634	-1421.39734	689.23859	119.27454	-1483.74573	727.99463	112.86780	-1475.19128	681.29242	115.74224	-1397.46265	512.03625	138.59801	-1428.69519	495.85370	269.14841	-1289.38062	487.35587	133.26939	-1258.08972	457.55585	128.49379	-1327.73315	437.46063	126.12492	-1289.82153	417.05231	121.85049	-1061.71790	245.26656	181.32198	-1092.26550	236.85727	260.35825	-1015.57550	299.74374	226.82901	-1066.23901	96.53091	281.90210	-1093.20483	62.89338	249.94409	-1040.64270	75.46065	179.96577
829	6.90000	-1403.43835	1060.95850	374.97980	-1583.79553	1017.64160	426.51358	-1554.55054	735.45422	472.26575	-1570.32666	693.39246	465.59177	-1614.24487	753.73956	469.46985	-1621.71936	710.10474	462.80518	-1647.77893	536.16132	408.74542	-1632.15063	536.01416	284.48993	-1594.46484	436.95166	428.89780	-1598.15491	389.04315	433.62390	-1654.29419	434.27740	416.17368	-1648.00500	387.27194	420.62195	-1601.99207	99.71704	379.06409	-1608.06311	105.49680	300.95053	-1535.35779	75.26013	345.95093	-1735.56555	42.40785	395.67419	-1782.28650	72.81090	322.93594	-1748.41223	42.38328	283.74310	-1389.14978	1056.16821	260.24063	-1563.66760	1015.40143	172.12685	-1434.55176	734.78577	114.58076	-1436.70728	689.02991	118.42857	-1497.63354	729.30280	111.68855	-1490.08643	682.45599	114.17770	-1416.15283	511.91434	136.37444	-1448.53760	495.66495	266.99789	-1309.41260	487.95135	131.35385	-1277.34912	458.72394	126.43186	-1346.92432	437.63968	123.81068	-1308.65637	417.76358	119.63866	-1077.46106	249.90181	180.08910	-1108.81226	240.87471	259.21548	-1034.15710	306.07523	226.43362	-1077.91577	100.54566	281.07846	-1102.11768	63.20935	247.04796	-1048.55359	80.21733	180.33626
830	6.90833	-1412.69763	1061.59937	376.05609	-1593.35620	1018.37506	427.11029	-1560.88330	735.97803	472.32343	-1576.40930	693.58331	465.89880	-1620.90332	753.51544	470.09460	-1627.79346	709.86658	463.62094	-1652.83691	535.90784	409.12177	-1636.85828	536.06464	284.95575	-1597.64160	437.13037	429.00238	-1600.69751	389.12454	433.68564	-1657.46838	433.88229	417.01605	-1650.81335	386.90045	421.24561	-1602.37598	99.94199	378.91647	-1608.11768	105.48254	300.57257	-1535.66687	75.64988	345.90088	-1735.69324	42.29805	395.66382	-1782.59338	72.41781	322.87701	-1748.58252	42.18015	283.62399	-1397.67419	1056.83313	261.08310	-1572.97424	1016.86133	172.64595	-1448.27527	735.19293	114.01176	-1451.37585	689.41571	117.39561	-1511.29834	730.88086	110.51191	-1504.76147	683.93427	112.61119	-1434.96985	512.03351	134.09193	-1467.95068	496.13727	265.04239	-1329.23914	488.66388	129.12213	-1297.31018	459.63486	124.47829	-1366.27185	437.95544	121.54940	-1327.93823	418.33511	117.47006	-1093.29785	254.26453	178.93970	-1125.39514	243.95480	257.75385	-1052.50220	311.60675	226.61700	-1091.04272	104.52451	280.16113	-1112.71875	65.44445	244.59236	-1059.03638	85.53950	179.20886
831	6.91667	-1422.09863	1062.09985	377.25812	-1602.78210	1019.31378	427.58887	-1567.05261	736.77057	472.48459	-1581.10400	694.92401	466.18655	-1627.38477	753.66675	470.75165	-1633.56030	710.03760	464.93900	-1657.63855	535.65045	409.45715	-1641.25403	535.96082	285.36841	-1600.76013	437.30826	429.14978	-1603.35303	389.31094	433.92676	-1660.76392	433.48309	417.67014	-1653.50952	386.62955	421.76779	-1603.17896	99.90174	378.39789	-1608.46790	105.70895	300.58371	-1535.99182	75.95583	345.80978	-1735.80640	42.13142	395.67056	-1782.96606	71.99468	322.81516	-1748.75781	41.96717	283.49850	-1406.40918	1057.12390	262.20480	-1582.09973	1018.41840	173.04898	-1461.76489	735.85309	113.36298	-1465.74109	690.14227	116.27876	-1524.83240	732.75635	109.35024	-1519.08142	685.74188	111.01309	-1453.92664	512.59644	131.80974	-1487.64795	497.47491	262.93231	-1349.37610	489.34775	126.89722	-1316.98535	460.65280	122.11187	-1385.87634	438.41974	119.46086	-1347.23901	419.06366	115.31728	-1109.89783	258.53845	178.51926	-1142.35071	247.46289	256.63980	-1070.51038	316.79633	226.83629	-1106.45044	108.94477	278.91403	-1126.32300	71.35576	242.77498	-1072.27917	91.12978	178.04211
832	6.92500	-1431.09631	1062.80945	378.51910	-1612.03833	1020.31348	427.87970	-1573.53625	737.63934	472.74359	-1587.05737	695.31012	466.61621	-1633.74524	753.90515	471.38004	-1639.54370	710.21783	465.58176	-1662.24683	535.56848	409.90945	-1645.52222	535.80402	285.78513	-1604.05444	437.56488	429.45145	-1605.65076	390.01248	434.76068	-1663.87219	433.13672	418.22290	-1656.28027	386.44962	422.24936	-1603.02161	99.91250	378.56302	-1608.84399	105.94710	300.56161	-1536.29492	76.45199	345.73578	-1735.91907	41.93746	395.68655	-1783.33899	71.47385	322.83084	-1748.91125	41.77362	283.43060	-1415.23071	1057.51917	263.54767	-1591.05688	1020.14624	173.33151	-1475.03442	736.70532	112.92406	-1479.86768	691.05157	115.25956	-1538.45728	734.47382	107.78794	-1533.38062	687.65759	109.52658	-1472.97595	513.26587	129.64980	-1506.44604	498.43747	261.29663	-1369.11951	490.37430	124.66672	-1336.60657	461.76901	119.96676	-1405.31580	439.19202	117.58096	-1366.78552	420.08481	113.42835	-1126.50964	263.62546	177.74617	-1160.03259	251.63454	255.59779	-1087.95618	321.32959	227.03877	-1124.12061	113.11715	277.25897	-1143.90173	75.36015	240.21640	-1088.91748	96.08273	176.75076
